<svg xmlns="http://www.w3.org/2000/svg" xmlns:svg="http://www.w3.org/2000/svg" id="svg10539" width="16" height="16" version="1.1" viewBox="0 0 4.233 4.233"><metadata id="metadata10536"/><g id="layer1" transform="translate(45.205952,-342.50834)"><path id="rect10509" fill="#2e3436" fill-opacity="1" stroke="none" stroke-width="1" d="M 3 2 C 1.9093002 2 1 2.9093039 1 4 L 1 12 L 1 14 L 15 14 L 15 12 L 15 4 C 15 2.9093039 14.090704 2 13 2 L 3 2 z M 3 4 L 6 4 L 6 12 L 3 12 L 3 4 z M 7 4 L 13 4 L 13 12 L 7 12 L 7 4 z" color="#bebebe" display="inline" opacity="1" overflow="visible" transform="matrix(0.26458333,0,0,0.26458333,-45.205952,342.50834)" visibility="visible" style="marker:none"/><rect id="rect10511" width="2.117" height=".794" x="-345.683" y="43.618" fill="#2e3436" fill-opacity="1" stroke="none" stroke-width=".265" color="#bebebe" display="inline" opacity=".35" overflow="visible" transform="matrix(0,-1,-1,0,0,0)" visibility="visible" style="marker:none"/></g></svg>
