<svg xmlns="http://www.w3.org/2000/svg" xmlns:svg="http://www.w3.org/2000/svg" id="svg4" width="240" height="240" version="1.1" viewBox="0 0 24 24"><metadata id="metadata10"/><path id="path2" fill="#fff" stroke-width="1.033" d="m 12.041073,5.5111561 c 2.168655,0 4.234041,0.8261544 5.783081,2.3751939 3.201348,3.201348 3.201348,8.468083 0,11.669431 -1.858848,1.962117 -4.44058,2.685002 -6.919044,2.375194 l 0.516347,-2.065386 c 1.755578,0.206538 3.614425,-0.413077 4.956926,-1.755578 2.375194,-2.375194 2.375194,-6.299428 0,-8.7778908 C 15.242421,8.1961579 13.590112,7.5765421 12.041073,7.5765421 V 12.32693 L 6.8776078,7.1634649 12.041073,1.9999999 V 5.5111561 M 6.1547227,19.555781 C 3.4697209,16.870779 3.0566437,12.740007 4.9154911,9.5386588 l 1.5490395,1.5490392 c -1.1359623,2.271925 -0.7228851,5.163465 1.2392316,7.022313 0.5163465,0.516346 1.1359623,0.929423 1.8588475,1.239231 L 8.9429938,21.414628 C 7.9103008,21.001551 6.9808771,20.381935 6.1547227,19.555781 Z"/></svg>