<svg xmlns="http://www.w3.org/2000/svg" xmlns:svg="http://www.w3.org/2000/svg" id="svg10" width="240" height="240" fill="none" version="1.1" viewBox="0 0 240 240"><metadata id="metadata16"/><g id="g27" transform="matrix(5.2631579,0,0,5.2631579,-27.368421,-993.1579)"><path id="path4" fill="#fff" d="M 47,227 H 9 v 2 h 38 z"/><path id="path6" fill="#fcde00" fill-rule="evenodd" d="m 29,211 h -2 v 6 h 2 z m -8.9301,16 c 0.49,-3.94 3.8501,-7 7.9301,-7 4.08,0 7.4401,3.06 7.9301,7 z m -4.2899,-8.63 1.4099,-1.42 3.5201,3.52 -1.42,1.41 z m 19.2899,1.15 3.5601,-3.51 1.41,1.4 -3.55,3.5201 z" clip-rule="evenodd"/><path id="path8" fill="#fff" fill-rule="evenodd" d="M 32.21,198.86 29,202.0699 V 194 h -2 v 8.04 l -3.24,-3.2299 -1.41,1.4099 5.66,5.67 5.62,-5.62 z" clip-rule="evenodd"/></g></svg>