<svg xmlns="http://www.w3.org/2000/svg" xmlns:svg="http://www.w3.org/2000/svg" id="svg38" width="240" height="240" version="1.1" viewBox="0 0 63.499 63.499"><metadata id="metadata44"/><g id="g869" transform="matrix(3.7035768,0,0,3.7035768,0.39191984,-172.06708)"><g id="g26" stroke-width=".963" transform="matrix(1.0382,0,0,1.0384,-0.32156,46.24383)"><path style="isolation:isolate" id="path2" fill="#46a926" d="m 13.323,3.603 c -0.048,0.049 2.02,4.86 2.02,4.86 l -2.02,4.858 c 0,0 -4.86,-2.568 -4.86,-4.859 0,-2.29 4.86,-4.859 4.86,-4.859 z"/><path style="isolation:isolate" id="path4" fill="#f22c42" d="M 3.604,13.321 C 3.653,13.272 1.584,8.462 1.584,8.462 l 2.02,-4.859 c 0,0 4.86,2.569 4.86,4.86 0,2.29 -4.86,4.858 -4.86,4.858 z"/><path style="isolation:isolate" id="path6" fill="#ffda64" d="M 13.323,3.603 C 13.275,3.652 8.463,1.584 8.463,1.584 l -4.86,2.019 4.86,4.86 z"/><path style="isolation:isolate" id="path8" fill="#2f5fdd" d="m 3.604,13.321 4.86,2.013 c 0,0 4.81,-2.062 4.86,-2.013 L 8.464,8.462 Z"/><path style="isolation:isolate" id="path10" fill="#a6d74f" d="M 8.464,1.587 C 8.463,3.345 9.136,5.103 10.483,6.449 L 13.328,3.605 A 6.88,6.88 0 0 0 8.467,1.587 Z"/><path style="isolation:isolate" id="path12" fill="#76c22b" d="M 13.328,3.605 10.483,6.449 A 6.84,6.84 0 0 0 15.346,8.461 6.88,6.88 0 0 0 13.328,3.605 Z"/><path style="isolation:isolate" id="path14" fill="#1463a5" d="m 10.476,10.481 a 6.85,6.85 0 0 0 -2.019,4.862 h 0.069 a 6.88,6.88 0 0 0 4.8,-2.013 z"/><path style="isolation:isolate" id="path16" fill="#2b898f" d="m 15.346,8.469 a 6.84,6.84 0 0 0 -4.87,2.012 l 2.85,2.85 a 6.88,6.88 0 0 0 2.02,-4.862 z"/><path style="isolation:isolate" id="path18" fill="#9b33ae" d="m 1.587,8.463 a 6.88,6.88 0 0 0 0,0.003 6.88,6.88 0 0 0 2.014,4.857 l 2.85,-2.848 A 6.839,6.839 0 0 0 1.587,8.464 Z"/><path style="isolation:isolate" id="path20" fill="#7839b7" d="M 6.45,10.475 3.6,13.323 a 6.88,6.88 0 0 0 4.826,2.02 H 8.469 A 6.85,6.85 0 0 0 6.45,10.475 Z"/><path style="isolation:isolate" id="path22" fill="#fdc92b" d="M 8.467,1.587 A 6.88,6.88 0 0 0 3.609,3.602 l 2.848,2.847 a 6.85,6.85 0 0 0 2.019,-4.861 6.88,6.88 0 0 0 -0.01,0 z"/><path style="isolation:isolate" id="path24" fill="#f34f17" d="M 3.609,3.602 A 6.88,6.88 0 0 0 1.588,8.461 6.84,6.84 0 0 0 6.457,6.449 Z"/></g><circle id="circle28" cx="8.467" cy="55.032" r="5.292" fill="#fff" opacity=".35" paint-order="fill markers stroke"/><g id="g36" fill="#fff" transform="translate(0,46.56575)"><path style="isolation:auto;mix-blend-mode:normal" id="path30" d="m 9.59,9.589 a 1.588,1.588 0 0 1 -2.246,0 1.588,1.588 0 0 1 0,-2.245 1.588,1.588 0 0 1 2.245,0 1.588,1.588 0 0 1 0,2.245 z" color="#000" opacity=".5" overflow="visible" paint-order="fill markers stroke"/><path style="isolation:auto;mix-blend-mode:normal" id="path32" d="M 8.467,4.031 A 0.126,0.126 0 0 0 8.379,4.069 L 6.277,6.171 a 3.175,3.175 0 0 0 -0.056,0.05 3.175,3.175 0 0 0 0,4.49 3.175,3.175 0 0 0 4.49,0 3.175,3.175 0 0 0 10e-4,-4.49 3.175,3.175 0 0 0 -0.076,-0.07 C 10.632,6.146 10.631,6.141 10.626,6.136 L 8.559,4.069 A 0.126,0.126 0 0 0 8.467,4.031 Z M 8.49,6.879 a 1.588,1.588 0 0 1 1.1,0.465 1.588,1.588 0 0 1 0,2.245 1.588,1.588 0 0 1 -2.246,0 1.588,1.588 0 0 1 0,-2.245 1.588,1.588 0 0 1 1.146,-0.465 z" color="#000" overflow="visible" paint-order="fill markers stroke"/><path style="isolation:auto;mix-blend-mode:normal" id="path34" d="M 9.022,7.718 8.461,8.279 7.9,7.718 7.712,7.905 8.274,8.466 7.724,9.039 7.9,9.215 8.46,8.653 9.022,9.215 9.221,9.039 8.648,8.466 9.209,7.906 Z" color="#000" overflow="visible" paint-order="fill markers stroke"/></g></g></svg>
