<svg xmlns="http://www.w3.org/2000/svg" xmlns:svg="http://www.w3.org/2000/svg" id="svg17" width="240" height="240" version="1.1" viewBox="0 0 63.499 63.499"><metadata id="metadata21"/><defs id="defs7"><linearGradient id="a" x1="47" x2="59.998" y1="41" y2="53.978" gradientTransform="matrix(0.26458,0,0,0.26458,-0.004,46.83575)" gradientUnits="userSpaceOnUse"><stop id="stop2" offset="0"/><stop id="stop4" offset="1" stop-color="#242424" stop-opacity="0"/></linearGradient></defs><g id="g835" transform="matrix(3.571519,0,0,3.571519,1.5128953,-164.79935)"><rect id="rect9" width="14.816" height="12.171" x="1.058" y="48.947" fill="#72787e" rx="1.372" ry="1.323"/><rect id="rect11" width="4.233" height=".529" x="5.292" y="55.556" fill="#fff" paint-order="stroke markers fill" ry=".265"/><path id="path13" fill="#fff" d="m 3.973,50.75575 a 0.264,0.264 0 0 0 -0.262,0.13 0.264,0.264 0 0 0 0.097,0.362 l 2.842,1.64 -2.842,1.641 a 0.264,0.264 0 0 0 -0.097,0.362 c 0.074,0.127 0.235,0.17 0.362,0.097 l 3.207,-1.852 a 0.26,0.26 0 0 0 0.127,-0.225 c 0.002,-0.008 0.001,-0.015 0.002,-0.022 0,-0.008 0,-0.015 -0.002,-0.023 a 0.26,0.26 0 0 0 -0.127,-0.224 l -3.207,-1.853 a 0.266,0.266 0 0 0 -0.1,-0.033 z" paint-order="stroke markers fill"/><path id="path15" fill="url(#a)" d="m 15.872,55.78075 -5.337,5.337 h 4.767 c 0.316,0 0.57,-0.238 0.57,-0.535 z" opacity=".15"/></g></svg>